<?xml version="1.0" standalone="no"?>
<!DOCTYPE svg PUBLIC "-//W3C//DTD SVG 20010904//EN"
 "http://www.w3.org/TR/2001/REC-SVG-20010904/DTD/svg10.dtd">
<svg version="1.0" xmlns="http://www.w3.org/2000/svg"
 width="300.000000pt" height="200.000000pt" viewBox="0 0 300.000000 200.000000"
 preserveAspectRatio="xMidYMid meet">
<metadata>
Created by potrace 1.10, written by Peter Selinger 2001-2011
</metadata>
<g transform="translate(0.000000,200.000000) scale(0.100000,-0.100000)"
fill="#000000" stroke="none">
<path d="M2135 1171 c-117 -72 -139 -219 -46 -312 75 -75 202 -78 280 -6 52
48 75 147 50 214 -12 34 -64 90 -101 109 -40 21 -146 18 -183 -5z m60 -43 c-9
-24 -22 -54 -27 -68 l-10 -25 -15 29 c-15 29 -15 31 13 52 37 30 27 39 -14 14
-38 -23 -39 -31 -7 -90 23 -45 23 -45 33 -20 6 14 22 52 35 85 l25 60 38 -83
38 -84 22 44 c30 57 30 65 -8 88 -41 25 -51 16 -14 -14 27 -21 28 -24 14 -50
l-14 -28 -27 64 c-15 35 -27 66 -27 70 0 10 54 -7 84 -27 65 -43 96 -157 62
-224 -29 -54 -122 -118 -143 -97 -9 9 39 106 52 106 7 0 24 26 38 58 l26 57 0
-45 c1 -52 -27 -105 -64 -122 -27 -12 -34 -28 -12 -28 15 0 69 55 86 87 14 28
14 84 0 120 -11 28 -11 28 -43 -42 l-32 -69 -35 82 c-18 45 -36 82 -40 82 -3
0 -18 -34 -34 -76 -16 -41 -32 -77 -36 -79 -4 -3 -19 25 -35 61 -26 63 -28 64
-40 42 -18 -31 -17 -93 1 -127 15 -30 70 -81 86 -81 18 0 8 15 -20 32 -40 22
-63 69 -59 121 l3 42 20 -54 c12 -32 28 -56 40 -61 20 -8 63 -96 52 -106 -12
-12 -75 18 -105 49 -36 38 -52 75 -52 124 0 47 34 118 68 142 28 19 84 41 91
35 2 -2 -4 -22 -14 -46z m55 -102 c8 -25 8 -40 -1 -60 -7 -14 -15 -26 -19 -26
-4 0 -12 12 -19 26 -9 20 -9 35 -1 60 7 19 15 34 20 34 5 0 13 -15 20 -34z
m-40 -96 c7 -22 16 -40 20 -40 4 0 13 18 20 40 12 36 30 54 30 30 0 -14 -44
-120 -50 -120 -6 0 -50 106 -50 120 0 24 18 6 30 -30z"/>
<path d="M637 1006 c-26 -64 -47 -118 -47 -121 0 -3 6 -5 13 -5 7 0 28 40 46
90 19 50 37 90 41 90 3 0 12 -17 19 -37 47 -131 53 -143 72 -143 10 0 19 1 19
3 0 21 -92 233 -102 235 -10 2 -30 -34 -61 -112z"/>
<path d="M780 1110 c0 -5 16 -10 35 -10 l35 0 0 -110 c0 -103 1 -110 20 -110
19 0 20 7 20 110 l0 110 35 0 c19 0 35 5 35 10 0 6 -37 10 -90 10 -53 0 -90
-4 -90 -10z"/>
<path d="M980 1000 c0 -115 1 -120 21 -120 19 0 21 5 17 55 l-3 55 53 0 52 0
0 -55 c0 -48 2 -55 20 -55 19 0 20 7 20 120 0 113 -1 120 -20 120 -18 0 -20
-7 -20 -56 l0 -55 -52 3 -52 3 3 53 c2 47 0 52 -18 52 -20 0 -21 -5 -21 -120z"/>
<path d="M1254 1083 c-19 -45 -74 -193 -74 -199 0 -2 5 -4 10 -4 6 0 17 18 26
40 15 38 18 40 60 40 42 0 44 -1 55 -40 9 -28 18 -40 31 -40 24 0 24 1 -18
116 -19 54 -37 105 -39 112 -8 24 -35 11 -51 -25z m35 -35 c25 -68 25 -68 -14
-68 -31 0 -36 3 -30 18 4 9 12 29 17 45 12 33 16 34 27 5z"/>
<path d="M1410 1000 c0 -114 1 -120 21 -120 19 0 20 5 18 108 -2 101 -1 107
19 110 12 2 30 -2 42 -8 17 -9 20 -19 18 -48 -3 -32 -7 -37 -30 -40 -16 -2
-28 -8 -28 -13 0 -20 75 -109 92 -109 25 0 23 10 -12 50 -35 41 -37 56 -10 63
22 6 35 46 26 80 -7 31 -45 47 -106 47 l-50 0 0 -120z"/>
<path d="M1580 1117 c0 -2 8 -24 19 -48 10 -24 31 -77 46 -116 15 -40 32 -73
39 -73 6 0 32 51 56 112 25 62 47 116 48 120 2 5 -3 8 -11 8 -9 0 -27 -33 -48
-90 -19 -49 -36 -90 -39 -90 -3 0 -19 39 -35 88 -25 71 -35 88 -53 90 -12 2
-22 1 -22 -1z"/>
<path d="M1829 1093 c-6 -16 -26 -67 -45 -114 -38 -98 -39 -99 -21 -99 7 0 27
42 46 95 19 53 36 93 40 90 3 -4 20 -45 37 -93 25 -69 35 -88 53 -90 l21 -3
-26 68 c-14 37 -35 92 -46 121 -22 58 -43 67 -59 25z"/>
</g>
</svg>
